<mxfile host="app.diagrams.net" agent="Mozilla/5.0 (Windows NT 10.0; Win64; x64) AppleWebKit/537.36 (KHTML, like Gecko) Chrome/140.0.0.0 Safari/537.36" version="28.2.5">
  <diagram name="Page-1" id="evT6mp7Rhc1RnRTB65xw">
    <mxGraphModel grid="1" page="1" gridSize="10" guides="1" tooltips="1" connect="1" arrows="1" fold="1" pageScale="1" pageWidth="827" pageHeight="1169" math="0" shadow="0">
      <root>
        <mxCell id="0" />
        <mxCell id="1" parent="0" />
        <mxCell id="fuG3oTF89nhzGpNgnWZ9-16" style="edgeStyle=orthogonalEdgeStyle;rounded=0;orthogonalLoop=1;jettySize=auto;html=1;exitX=0.5;exitY=0.5;exitDx=0;exitDy=0;exitPerimeter=0;entryX=0;entryY=0.5;entryDx=0;entryDy=0;" edge="1" parent="1" source="fuG3oTF89nhzGpNgnWZ9-1" target="fuG3oTF89nhzGpNgnWZ9-8">
          <mxGeometry relative="1" as="geometry">
            <Array as="points">
              <mxPoint x="205" y="205" />
              <mxPoint x="205" y="45" />
            </Array>
          </mxGeometry>
        </mxCell>
        <mxCell id="fuG3oTF89nhzGpNgnWZ9-21" style="edgeStyle=orthogonalEdgeStyle;rounded=0;orthogonalLoop=1;jettySize=auto;html=1;exitX=0.5;exitY=0.5;exitDx=0;exitDy=0;exitPerimeter=0;entryX=0;entryY=0.5;entryDx=0;entryDy=0;" edge="1" parent="1" source="fuG3oTF89nhzGpNgnWZ9-1" target="fuG3oTF89nhzGpNgnWZ9-10">
          <mxGeometry relative="1" as="geometry" />
        </mxCell>
        <mxCell id="fuG3oTF89nhzGpNgnWZ9-22" style="edgeStyle=orthogonalEdgeStyle;rounded=0;orthogonalLoop=1;jettySize=auto;html=1;exitX=0.5;exitY=0.5;exitDx=0;exitDy=0;exitPerimeter=0;entryX=0;entryY=0.5;entryDx=0;entryDy=0;" edge="1" parent="1" source="fuG3oTF89nhzGpNgnWZ9-1" target="fuG3oTF89nhzGpNgnWZ9-11">
          <mxGeometry relative="1" as="geometry" />
        </mxCell>
        <mxCell id="fuG3oTF89nhzGpNgnWZ9-25" style="edgeStyle=orthogonalEdgeStyle;rounded=0;orthogonalLoop=1;jettySize=auto;html=1;exitX=0.5;exitY=0.5;exitDx=0;exitDy=0;exitPerimeter=0;entryX=0;entryY=0.5;entryDx=0;entryDy=0;" edge="1" parent="1" source="fuG3oTF89nhzGpNgnWZ9-1" target="fuG3oTF89nhzGpNgnWZ9-12">
          <mxGeometry relative="1" as="geometry" />
        </mxCell>
        <mxCell id="fuG3oTF89nhzGpNgnWZ9-26" style="edgeStyle=orthogonalEdgeStyle;rounded=0;orthogonalLoop=1;jettySize=auto;html=1;exitX=0.5;exitY=0.5;exitDx=0;exitDy=0;exitPerimeter=0;entryX=0;entryY=0.5;entryDx=0;entryDy=0;" edge="1" parent="1" source="fuG3oTF89nhzGpNgnWZ9-1" target="fuG3oTF89nhzGpNgnWZ9-13">
          <mxGeometry relative="1" as="geometry">
            <Array as="points">
              <mxPoint x="205" y="205" />
              <mxPoint x="205" y="400" />
            </Array>
          </mxGeometry>
        </mxCell>
        <mxCell id="fuG3oTF89nhzGpNgnWZ9-29" style="edgeStyle=orthogonalEdgeStyle;rounded=0;orthogonalLoop=1;jettySize=auto;html=1;exitX=0.5;exitY=0.5;exitDx=0;exitDy=0;exitPerimeter=0;entryX=0;entryY=0.5;entryDx=0;entryDy=0;" edge="1" parent="1" source="fuG3oTF89nhzGpNgnWZ9-1" target="fuG3oTF89nhzGpNgnWZ9-9">
          <mxGeometry relative="1" as="geometry" />
        </mxCell>
        <mxCell id="fuG3oTF89nhzGpNgnWZ9-32" style="edgeStyle=orthogonalEdgeStyle;rounded=0;orthogonalLoop=1;jettySize=auto;html=1;exitX=0.5;exitY=0.5;exitDx=0;exitDy=0;exitPerimeter=0;entryX=0;entryY=0.5;entryDx=0;entryDy=0;" edge="1" parent="1" source="fuG3oTF89nhzGpNgnWZ9-1" target="fuG3oTF89nhzGpNgnWZ9-30">
          <mxGeometry relative="1" as="geometry" />
        </mxCell>
        <mxCell id="fuG3oTF89nhzGpNgnWZ9-1" value="CUSTOMER" style="shape=umlActor;verticalLabelPosition=bottom;verticalAlign=top;html=1;outlineConnect=0;" vertex="1" parent="1">
          <mxGeometry x="80" y="140" width="60" height="130" as="geometry" />
        </mxCell>
        <mxCell id="fuG3oTF89nhzGpNgnWZ9-8" value="Register/Login" style="ellipse;whiteSpace=wrap;html=1;" vertex="1" parent="1">
          <mxGeometry x="270" y="20" width="120" height="50" as="geometry" />
        </mxCell>
        <mxCell id="fuG3oTF89nhzGpNgnWZ9-9" value="Browse Products &amp;amp; Search" style="ellipse;whiteSpace=wrap;html=1;" vertex="1" parent="1">
          <mxGeometry x="275" y="90" width="110" height="50" as="geometry" />
        </mxCell>
        <mxCell id="fuG3oTF89nhzGpNgnWZ9-10" value="&lt;div&gt;View Product Details&lt;/div&gt;" style="ellipse;whiteSpace=wrap;html=1;" vertex="1" parent="1">
          <mxGeometry x="270" y="160" width="120" height="50" as="geometry" />
        </mxCell>
        <mxCell id="fuG3oTF89nhzGpNgnWZ9-11" value="Checkout &amp;amp; Pay Online" style="ellipse;whiteSpace=wrap;html=1;" vertex="1" parent="1">
          <mxGeometry x="270" y="230" width="120" height="50" as="geometry" />
        </mxCell>
        <mxCell id="fuG3oTF89nhzGpNgnWZ9-12" value="Track Orders" style="ellipse;whiteSpace=wrap;html=1;" vertex="1" parent="1">
          <mxGeometry x="270" y="300" width="120" height="50" as="geometry" />
        </mxCell>
        <mxCell id="fuG3oTF89nhzGpNgnWZ9-13" value="View Appointment" style="ellipse;whiteSpace=wrap;html=1;" vertex="1" parent="1">
          <mxGeometry x="270" y="370" width="120" height="60" as="geometry" />
        </mxCell>
        <mxCell id="fuG3oTF89nhzGpNgnWZ9-30" value="Manage Shopping Cart" style="ellipse;whiteSpace=wrap;html=1;" vertex="1" parent="1">
          <mxGeometry x="275" y="450" width="115" height="50" as="geometry" />
        </mxCell>
      </root>
    </mxGraphModel>
  </diagram>
</mxfile>
